<svg width="216" height="223" viewBox="0 0 216 223" fill="none" xmlns="http://www.w3.org/2000/svg">
<g filter="url(#filter0_f_1_6791)">
<path d="M89.7818 30.5789C103.25 26.3122 128.914 71.317 128.914 71.317C128.914 71.317 176.424 50.6906 184.648 62.1939C192.864 73.6714 157.987 111.999 157.987 111.999C157.987 111.999 192.276 150.829 183.899 162.187C175.522 173.545 128.295 152.239 128.295 152.239C128.295 152.239 101.977 196.844 88.5622 192.39C75.1473 187.935 80.8489 136.436 80.8489 136.436C80.8489 136.436 30.2902 125.174 30.3725 111.068C30.4807 96.9535 81.1937 86.4345 81.1937 86.4345C81.1937 86.4345 76.3137 34.8455 89.7818 30.5789Z" fill="url(#paint0_linear_1_6791)"/>
</g>
<g filter="url(#filter1_f_1_6791)">
<path d="M89.7819 30.5791C103.25 26.3125 128.914 71.3173 128.914 71.3173C128.914 71.3173 176.424 50.6908 184.648 62.1942C192.864 73.6717 157.987 111.999 157.987 111.999C157.987 111.999 192.276 150.83 183.899 162.188C175.522 173.546 128.295 152.24 128.295 152.24C128.295 152.24 101.977 196.844 88.5623 192.39C75.1474 187.936 80.849 136.436 80.849 136.436C80.849 136.436 30.2903 125.174 30.3726 111.068C30.4808 96.9537 81.1938 86.4348 81.1938 86.4348C81.1938 86.4348 76.3138 34.8458 89.7819 30.5791Z" fill="url(#paint1_linear_1_6791)"/>
</g>
<g filter="url(#filter2_f_1_6791)">
<path d="M89.7819 30.5791C103.25 26.3125 128.914 71.3173 128.914 71.3173C128.914 71.3173 176.424 50.6908 184.648 62.1942C192.864 73.6717 157.987 111.999 157.987 111.999C157.987 111.999 192.276 150.83 183.899 162.188C175.522 173.546 128.295 152.24 128.295 152.24C128.295 152.24 101.977 196.844 88.5623 192.39C75.1474 187.936 80.849 136.436 80.849 136.436C80.849 136.436 30.2903 125.174 30.3726 111.068C30.4808 96.9537 81.1938 86.4348 81.1938 86.4348C81.1938 86.4348 76.3138 34.8458 89.7819 30.5791Z" fill="url(#paint2_linear_1_6791)"/>
</g>
<path d="M89.7813 30.5792C102.577 26.5255 127.005 69.3335 127.005 69.3335C127.005 69.3335 172.219 49.7189 180.031 60.6415C187.844 71.5641 154.675 108.013 154.675 108.013C154.675 108.013 187.312 144.95 179.329 155.756C171.346 166.562 126.437 146.286 126.437 146.286C126.437 146.286 101.395 188.723 88.6456 184.484C75.8965 180.246 81.3118 131.255 81.3118 131.255C81.3118 131.255 33.2062 120.553 33.3041 107.124C33.402 93.6958 81.6629 83.6976 81.6629 83.6976C81.6629 83.6976 76.9853 34.633 89.7813 30.5792Z" fill="url(#paint3_radial_1_6791)"/>
<path d="M153.644 104.756C153.644 104.756 185.789 140.141 177.75 150.681C169.677 161.203 125.128 142.064 125.128 142.064C125.128 142.064 99.7257 183.363 87.0666 179.409C74.4252 175.421 80.3318 127.981 80.3318 127.981C80.3318 127.981 32.4789 118.166 32.716 105.177C32.716 105.177 32.716 105.177 32.7337 105.143C33.0389 92.1893 81.1649 82.0347 81.1649 82.0347C81.1649 82.0347 76.9938 34.6585 89.8156 30.5966C102.637 26.5347 126.507 67.6706 126.507 67.6706C126.507 67.6706 165.089 51.0957 177.079 56.798C178.075 57.2503 178.872 57.8796 179.469 58.6861C187.09 69.1857 153.644 104.756 153.644 104.756Z" fill="url(#paint4_linear_1_6791)"/>
<path d="M153.3 103.67C153.3 103.67 185.445 139.055 177.406 149.595C169.333 160.117 123.777 137.799 123.777 137.799C123.777 137.799 99.3819 182.278 86.7229 178.323C74.0815 174.335 79.988 126.895 79.988 126.895C79.988 126.895 32.1351 117.08 32.3723 104.091C32.3723 104.091 32.3723 104.091 32.3899 104.057C32.6952 91.1036 80.8211 80.949 80.8211 80.949C80.8211 80.949 76.65 33.5728 89.4719 29.5109C102.294 25.449 126.163 66.5849 126.163 66.5849C126.163 66.5849 164.745 50.01 176.735 55.7123C177.732 56.1646 178.528 56.7939 179.125 57.6004C186.747 68.1 153.3 103.67 153.3 103.67Z" fill="url(#paint5_linear_1_6791)"/>
<path d="M177.02 56.7884C176.654 57.7005 176.126 58.636 175.418 59.543C160.038 79.7753 122.029 89.0006 78.3623 92.8499C36.371 96.5098 32.8807 104.528 32.7084 105.151C33.0137 92.1973 81.1396 82.0428 81.1396 82.0428C81.1396 82.0428 76.9685 34.6666 89.7904 30.6047C102.612 26.5428 126.481 67.6787 126.481 67.6787C126.481 67.6787 165.056 51.0779 177.02 56.7884Z" fill="#FEEA80"/>
<path d="M82.0488 49.356C82.0488 49.356 84.0682 34.181 88.1651 33.196C92.262 32.211 91.6924 43.3427 90.7507 44.9495C89.7832 46.5645 83.5914 50.0052 82.0488 49.356Z" fill="white"/>
<path d="M35.1653 102.581C35.4503 104.738 49.4833 95.9685 48.9208 94.0133C48.3759 92.0241 34.5059 97.3568 35.1653 102.581Z" fill="white"/>
<path d="M176.186 138.291C174.469 136.73 177.029 151.905 177.742 150.655C178.438 149.439 182.271 143.759 176.186 138.291Z" fill="white"/>
<path d="M87.7525 134.704C89.9088 133.879 92.3281 134.961 93.1793 137.109C94.0046 139.266 92.9223 141.685 90.7742 142.536C88.6178 143.362 86.1984 142.279 85.3472 140.131C84.5136 137.949 85.5961 135.529 87.7525 134.704Z" fill="white" fill-opacity="0.4"/>
<path d="M120.815 80.5954C122.972 79.7701 125.391 80.8525 126.242 83.0007C127.068 85.157 125.985 87.5764 123.837 88.4276C121.681 89.253 119.236 88.1787 118.41 86.0223C117.585 83.866 118.667 81.4466 120.815 80.5954Z" fill="white" fill-opacity="0.4"/>
<path d="M96.0406 78.8014C102.104 76.4822 108.894 79.5082 111.205 85.5459C113.524 91.6096 110.498 98.3994 104.461 100.71C98.3969 103.029 91.6071 100.004 89.2961 93.9658C86.9511 87.9103 89.977 81.1205 96.0406 78.8014Z" fill="white" fill-opacity="0.4"/>
<path d="M94.4314 146.27C95.8803 145.726 97.499 146.436 98.0434 147.885C98.5877 149.334 97.8775 150.953 96.4286 151.497C94.9797 152.042 93.3608 151.331 92.8164 149.882C92.2721 148.433 92.9825 146.815 94.4314 146.27Z" fill="white" fill-opacity="0.4"/>
<path d="M144.302 131.296C145.751 130.752 147.37 131.462 147.914 132.911C148.459 134.36 147.748 135.979 146.299 136.523C144.85 137.068 143.232 136.357 142.687 134.908C142.143 133.46 142.853 131.841 144.302 131.296Z" fill="white" fill-opacity="0.4"/>
<defs>
<filter id="filter0_f_1_6791" x="0.372406" y="0.293701" width="215.529" height="222.409" filterUnits="userSpaceOnUse" color-interpolation-filters="sRGB">
<feFlood flood-opacity="0" result="BackgroundImageFix"/>
<feBlend mode="normal" in="SourceGraphic" in2="BackgroundImageFix" result="shape"/>
<feGaussianBlur stdDeviation="15" result="effect1_foregroundBlur_1_6791"/>
</filter>
<filter id="filter1_f_1_6791" x="10.3725" y="10.2939" width="195.529" height="202.409" filterUnits="userSpaceOnUse" color-interpolation-filters="sRGB">
<feFlood flood-opacity="0" result="BackgroundImageFix"/>
<feBlend mode="normal" in="SourceGraphic" in2="BackgroundImageFix" result="shape"/>
<feGaussianBlur stdDeviation="10" result="effect1_foregroundBlur_1_6791"/>
</filter>
<filter id="filter2_f_1_6791" x="20.3725" y="20.2939" width="175.529" height="182.409" filterUnits="userSpaceOnUse" color-interpolation-filters="sRGB">
<feFlood flood-opacity="0" result="BackgroundImageFix"/>
<feBlend mode="normal" in="SourceGraphic" in2="BackgroundImageFix" result="shape"/>
<feGaussianBlur stdDeviation="5" result="effect1_foregroundBlur_1_6791"/>
</filter>
<linearGradient id="paint0_linear_1_6791" x1="136.637" y1="178.477" x2="138.5" y2="14.9998" gradientUnits="userSpaceOnUse">
<stop stop-color="#6F41DA"/>
<stop offset="1" stop-color="#6EF0A2"/>
</linearGradient>
<linearGradient id="paint1_linear_1_6791" x1="136.637" y1="178.477" x2="138.5" y2="15" gradientUnits="userSpaceOnUse">
<stop stop-color="#6F41DA"/>
<stop offset="1" stop-color="#6EF0A2"/>
</linearGradient>
<linearGradient id="paint2_linear_1_6791" x1="136.637" y1="178.477" x2="138.5" y2="15" gradientUnits="userSpaceOnUse">
<stop stop-color="#6F41DA"/>
<stop offset="1" stop-color="#6EF0A2"/>
</linearGradient>
<radialGradient id="paint3_radial_1_6791" cx="0" cy="0" r="1" gradientUnits="userSpaceOnUse" gradientTransform="translate(112.071 100.932) rotate(-17.578) scale(75.5435 75.5435)">
<stop stop-color="#FFBD00"/>
<stop offset="1" stop-color="#FF772C"/>
</radialGradient>
<linearGradient id="paint4_linear_1_6791" x1="132.736" y1="166.164" x2="89.7859" y2="30.5864" gradientUnits="userSpaceOnUse">
<stop stop-color="#FFF300"/>
<stop offset="1" stop-color="#FF9700"/>
</linearGradient>
<linearGradient id="paint5_linear_1_6791" x1="132.365" y1="164.991" x2="89.4442" y2="29.5072" gradientUnits="userSpaceOnUse">
<stop stop-color="#FFDD55"/>
<stop offset="1" stop-color="#FFEC43"/>
</linearGradient>
</defs>
</svg>
