<svg width="515" height="166" viewBox="0 0 515 166" fill="none" xmlns="http://www.w3.org/2000/svg">
<g filter="url(#filter0_f_1_6781)">
<path d="M40.12 30.4H93.24C95.8853 30.4 98.1467 31.3387 100.024 33.216C101.901 35.0933 102.84 37.3547 102.84 40V111.68C102.84 114.325 101.859 116.587 99.896 118.464C97.9333 120.341 95.5013 121.28 92.6 121.28C89.6987 121.28 87.2667 120.341 85.304 118.464C83.3413 116.587 82.36 114.325 82.36 111.68V49.6H51V111.68C51 114.325 50.0187 116.587 48.056 118.464C46.0933 120.341 43.6613 121.28 40.76 121.28C37.8587 121.28 35.4267 120.341 33.464 118.464C31.5013 116.587 30.52 114.325 30.52 111.68V40C30.52 37.3547 31.4587 35.0933 33.336 33.216C35.2133 31.3387 37.4747 30.4 40.12 30.4ZM173.511 112.96C167.708 118.677 159.943 121.536 150.215 121.536C140.487 121.536 132.764 118.677 127.047 112.96C121.159 107.157 118.215 99.904 118.215 91.2C118.215 82.4107 121.159 75.1573 127.047 69.44C132.764 63.7227 140.487 60.864 150.215 60.864C159.943 60.864 167.708 63.7227 173.511 69.44C179.314 75.2427 182.215 82.496 182.215 91.2C182.215 99.904 179.314 107.157 173.511 112.96ZM158.407 82.24C156.786 80.448 154.78 79.3813 152.391 79.04C150.087 78.6133 147.868 78.8267 145.735 79.68C143.687 80.5333 141.938 81.984 140.487 84.032C139.122 86.08 138.524 88.4693 138.695 91.2C138.695 94.784 139.762 97.7707 141.895 100.16C144.114 102.464 146.887 103.616 150.215 103.616C153.628 103.616 156.402 102.507 158.535 100.288C160.668 97.984 161.735 94.9547 161.735 91.2C161.735 87.616 160.626 84.6293 158.407 82.24ZM226.32 63.68C233.829 63.68 239.973 66.1973 244.752 71.232C249.445 76.2667 251.792 83.0933 251.792 91.712C251.792 99.9893 248.976 107.029 243.344 112.832C237.712 118.635 230.288 121.536 221.072 121.536C211.173 121.536 203.365 118.208 197.648 111.552C192.016 104.896 189.2 95.8933 189.2 84.544C189.2 58.688 196.624 43.3707 211.472 38.592C214.032 37.7387 217.061 36.9707 220.56 36.288C224.315 35.52 226.875 34.752 228.24 33.984C231.397 32.3627 234.171 31.552 236.56 31.552C239.888 31.552 242.235 33.088 243.6 36.16C244.368 37.7813 244.752 39.3173 244.752 40.768C244.752 44.2667 242.96 47.0827 239.376 49.216C237.072 50.5813 233.36 51.8187 228.24 52.928C222.949 54.1227 219.237 55.1467 217.104 56C212.24 57.9627 209.381 63.2107 208.528 71.744C210.32 69.44 212.837 67.52 216.08 65.984C219.408 64.448 222.821 63.68 226.32 63.68ZM221.328 81.6C215.696 81.6 211.813 83.9467 209.68 88.64C209.765 92.9067 210.789 96.4907 212.752 99.392C214.715 102.208 217.317 103.616 220.56 103.616C224.997 103.957 228.155 102.208 230.032 98.368C231.909 94.528 231.952 90.688 230.16 86.848C228.453 83.008 225.509 81.2587 221.328 81.6ZM278.04 84.8H298.776C298.776 82.5813 297.923 80.704 296.216 79.168C294.509 77.632 292.248 76.864 289.432 76.864C283.8 76.864 280.003 79.5093 278.04 84.8ZM290.072 60.864C297.667 60.864 304.237 63.3813 309.784 68.416C315.245 73.536 317.976 80.064 317.976 88V90.56C317.976 92.7787 317.208 94.528 315.672 95.808C314.221 97.0027 312.515 97.6 310.552 97.6H278.68C280.387 102.891 284.867 105.536 292.12 105.536C294.68 105.536 297.368 105.109 300.184 104.256C301.123 104 301.976 103.872 302.744 103.872C306.072 103.872 308.291 105.408 309.4 108.48C309.741 109.163 309.912 110.059 309.912 111.168C309.912 114.581 308.163 117.141 304.664 118.848C301.251 120.64 296.387 121.536 290.072 121.536C280.685 121.536 273.133 118.763 267.416 113.216C261.699 107.755 258.84 100.416 258.84 91.2C258.84 82.5813 261.741 75.3707 267.544 69.568C273.347 63.7653 280.856 60.864 290.072 60.864ZM373.272 123.84V120H338.2V123.84C338.2 126.229 337.304 128.32 335.512 130.112C333.72 131.904 331.629 132.8 329.24 132.8C326.851 132.8 324.76 131.904 322.968 130.112C321.176 128.32 320.28 126.229 320.28 123.84V109.376C320.28 107.413 321.005 105.707 322.456 104.256C323.907 102.805 325.656 102.08 327.704 102.08C331.885 96.6187 334.36 87.5307 335.128 74.816L335.384 71.36C335.469 68.8853 336.451 66.7947 338.328 65.088C340.205 63.296 342.381 62.4 344.856 62.4H372.632C375.107 62.4 377.197 63.296 378.904 65.088C380.696 66.88 381.592 68.9707 381.592 71.36V102.08C384.237 102.08 386.499 102.976 388.376 104.768C390.253 106.475 391.192 108.565 391.192 111.04V123.84C391.192 126.229 390.296 128.32 388.504 130.112C386.712 131.904 384.621 132.8 382.232 132.8C379.843 132.8 377.752 131.904 375.96 130.112C374.168 128.32 373.272 126.229 373.272 123.84ZM347.8 102.08H362.392V80.32H353.816L353.56 82.624C352.536 91.2427 350.616 97.728 347.8 102.08ZM414.516 121.28C409.14 121.28 404.745 119.573 401.332 116.16C398.004 112.747 396.34 108.224 396.34 102.592C396.34 96.5333 398.217 91.84 401.972 88.512C405.812 85.184 410.847 83.52 417.076 83.52C421.94 83.52 425.695 84.5867 428.34 86.72V85.568C428.34 79.7653 425.695 76.864 420.404 76.864C417.673 76.864 414.985 77.248 412.34 78.016C411.657 78.1867 410.932 78.272 410.164 78.272C406.58 78.272 404.233 76.48 403.124 72.896C402.868 72.2133 402.74 71.5307 402.74 70.848C402.74 69.2267 403.295 67.6907 404.404 66.24C405.599 64.7893 407.092 63.7227 408.884 63.04C412.809 61.5893 417.289 60.864 422.324 60.864C430.687 60.864 436.745 62.8693 440.5 66.88C444.34 70.8907 446.26 77.0347 446.26 85.312V111.808C446.26 114.624 445.449 116.928 443.828 118.72C442.292 120.427 440.372 121.28 438.068 121.28C433.716 121.28 430.9 119.104 429.62 114.752C426.889 119.104 421.855 121.28 414.516 121.28ZM428.34 101.824V98.24C426.548 96.96 424.116 96.32 421.044 96.32C419.423 96.32 418.1 96.704 417.076 97.472C416.052 98.24 415.54 99.3067 415.54 100.672C415.54 101.952 416.052 103.019 417.076 103.872C418.1 104.725 419.423 105.152 421.044 105.152C424.201 105.152 426.633 104.043 428.34 101.824ZM461.6 75.84V40C461.6 37.3547 462.581 35.0933 464.544 33.216C466.507 31.3387 468.939 30.4 471.84 30.4C474.741 30.4 477.173 31.3387 479.136 33.216C481.099 35.0933 482.08 37.3547 482.08 40V75.84C482.08 78.4853 481.099 80.7467 479.136 82.624C477.173 84.5013 474.741 85.44 471.84 85.44C468.939 85.44 466.507 84.5013 464.544 82.624C462.581 80.7467 461.6 78.4853 461.6 75.84ZM472.352 120.768C468.512 120.768 465.355 119.531 462.88 117.056C460.491 114.496 459.296 111.381 459.296 107.712C459.296 104.555 460.533 101.781 463.008 99.392C465.483 96.9173 468.597 95.68 472.352 95.68C475.68 95.68 478.496 96.9173 480.8 99.392C483.189 101.781 484.384 104.555 484.384 107.712C484.384 111.296 483.232 114.368 480.928 116.928C478.709 119.488 475.851 120.768 472.352 120.768Z" fill="#1E813A"/>
</g>
<g filter="url(#filter1_f_1_6781)">
<path d="M40.12 30.4H93.24C95.8853 30.4 98.1467 31.3387 100.024 33.216C101.901 35.0933 102.84 37.3547 102.84 40V111.68C102.84 114.325 101.859 116.587 99.896 118.464C97.9333 120.341 95.5013 121.28 92.6 121.28C89.6987 121.28 87.2667 120.341 85.304 118.464C83.3413 116.587 82.36 114.325 82.36 111.68V49.6H51V111.68C51 114.325 50.0187 116.587 48.056 118.464C46.0933 120.341 43.6613 121.28 40.76 121.28C37.8587 121.28 35.4267 120.341 33.464 118.464C31.5013 116.587 30.52 114.325 30.52 111.68V40C30.52 37.3547 31.4587 35.0933 33.336 33.216C35.2133 31.3387 37.4747 30.4 40.12 30.4ZM173.511 112.96C167.708 118.677 159.943 121.536 150.215 121.536C140.487 121.536 132.764 118.677 127.047 112.96C121.159 107.157 118.215 99.904 118.215 91.2C118.215 82.4107 121.159 75.1573 127.047 69.44C132.764 63.7227 140.487 60.864 150.215 60.864C159.943 60.864 167.708 63.7227 173.511 69.44C179.314 75.2427 182.215 82.496 182.215 91.2C182.215 99.904 179.314 107.157 173.511 112.96ZM158.407 82.24C156.786 80.448 154.78 79.3813 152.391 79.04C150.087 78.6133 147.868 78.8267 145.735 79.68C143.687 80.5333 141.938 81.984 140.487 84.032C139.122 86.08 138.524 88.4693 138.695 91.2C138.695 94.784 139.762 97.7707 141.895 100.16C144.114 102.464 146.887 103.616 150.215 103.616C153.628 103.616 156.402 102.507 158.535 100.288C160.668 97.984 161.735 94.9547 161.735 91.2C161.735 87.616 160.626 84.6293 158.407 82.24ZM226.32 63.68C233.829 63.68 239.973 66.1973 244.752 71.232C249.445 76.2667 251.792 83.0933 251.792 91.712C251.792 99.9893 248.976 107.029 243.344 112.832C237.712 118.635 230.288 121.536 221.072 121.536C211.173 121.536 203.365 118.208 197.648 111.552C192.016 104.896 189.2 95.8933 189.2 84.544C189.2 58.688 196.624 43.3707 211.472 38.592C214.032 37.7387 217.061 36.9707 220.56 36.288C224.315 35.52 226.875 34.752 228.24 33.984C231.397 32.3627 234.171 31.552 236.56 31.552C239.888 31.552 242.235 33.088 243.6 36.16C244.368 37.7813 244.752 39.3173 244.752 40.768C244.752 44.2667 242.96 47.0827 239.376 49.216C237.072 50.5813 233.36 51.8187 228.24 52.928C222.949 54.1227 219.237 55.1467 217.104 56C212.24 57.9627 209.381 63.2107 208.528 71.744C210.32 69.44 212.837 67.52 216.08 65.984C219.408 64.448 222.821 63.68 226.32 63.68ZM221.328 81.6C215.696 81.6 211.813 83.9467 209.68 88.64C209.765 92.9067 210.789 96.4907 212.752 99.392C214.715 102.208 217.317 103.616 220.56 103.616C224.997 103.957 228.155 102.208 230.032 98.368C231.909 94.528 231.952 90.688 230.16 86.848C228.453 83.008 225.509 81.2587 221.328 81.6ZM278.04 84.8H298.776C298.776 82.5813 297.923 80.704 296.216 79.168C294.509 77.632 292.248 76.864 289.432 76.864C283.8 76.864 280.003 79.5093 278.04 84.8ZM290.072 60.864C297.667 60.864 304.237 63.3813 309.784 68.416C315.245 73.536 317.976 80.064 317.976 88V90.56C317.976 92.7787 317.208 94.528 315.672 95.808C314.221 97.0027 312.515 97.6 310.552 97.6H278.68C280.387 102.891 284.867 105.536 292.12 105.536C294.68 105.536 297.368 105.109 300.184 104.256C301.123 104 301.976 103.872 302.744 103.872C306.072 103.872 308.291 105.408 309.4 108.48C309.741 109.163 309.912 110.059 309.912 111.168C309.912 114.581 308.163 117.141 304.664 118.848C301.251 120.64 296.387 121.536 290.072 121.536C280.685 121.536 273.133 118.763 267.416 113.216C261.699 107.755 258.84 100.416 258.84 91.2C258.84 82.5813 261.741 75.3707 267.544 69.568C273.347 63.7653 280.856 60.864 290.072 60.864ZM373.272 123.84V120H338.2V123.84C338.2 126.229 337.304 128.32 335.512 130.112C333.72 131.904 331.629 132.8 329.24 132.8C326.851 132.8 324.76 131.904 322.968 130.112C321.176 128.32 320.28 126.229 320.28 123.84V109.376C320.28 107.413 321.005 105.707 322.456 104.256C323.907 102.805 325.656 102.08 327.704 102.08C331.885 96.6187 334.36 87.5307 335.128 74.816L335.384 71.36C335.469 68.8853 336.451 66.7947 338.328 65.088C340.205 63.296 342.381 62.4 344.856 62.4H372.632C375.107 62.4 377.197 63.296 378.904 65.088C380.696 66.88 381.592 68.9707 381.592 71.36V102.08C384.237 102.08 386.499 102.976 388.376 104.768C390.253 106.475 391.192 108.565 391.192 111.04V123.84C391.192 126.229 390.296 128.32 388.504 130.112C386.712 131.904 384.621 132.8 382.232 132.8C379.843 132.8 377.752 131.904 375.96 130.112C374.168 128.32 373.272 126.229 373.272 123.84ZM347.8 102.08H362.392V80.32H353.816L353.56 82.624C352.536 91.2427 350.616 97.728 347.8 102.08ZM414.516 121.28C409.14 121.28 404.745 119.573 401.332 116.16C398.004 112.747 396.34 108.224 396.34 102.592C396.34 96.5333 398.217 91.84 401.972 88.512C405.812 85.184 410.847 83.52 417.076 83.52C421.94 83.52 425.695 84.5867 428.34 86.72V85.568C428.34 79.7653 425.695 76.864 420.404 76.864C417.673 76.864 414.985 77.248 412.34 78.016C411.657 78.1867 410.932 78.272 410.164 78.272C406.58 78.272 404.233 76.48 403.124 72.896C402.868 72.2133 402.74 71.5307 402.74 70.848C402.74 69.2267 403.295 67.6907 404.404 66.24C405.599 64.7893 407.092 63.7227 408.884 63.04C412.809 61.5893 417.289 60.864 422.324 60.864C430.687 60.864 436.745 62.8693 440.5 66.88C444.34 70.8907 446.26 77.0347 446.26 85.312V111.808C446.26 114.624 445.449 116.928 443.828 118.72C442.292 120.427 440.372 121.28 438.068 121.28C433.716 121.28 430.9 119.104 429.62 114.752C426.889 119.104 421.855 121.28 414.516 121.28ZM428.34 101.824V98.24C426.548 96.96 424.116 96.32 421.044 96.32C419.423 96.32 418.1 96.704 417.076 97.472C416.052 98.24 415.54 99.3067 415.54 100.672C415.54 101.952 416.052 103.019 417.076 103.872C418.1 104.725 419.423 105.152 421.044 105.152C424.201 105.152 426.633 104.043 428.34 101.824ZM461.6 75.84V40C461.6 37.3547 462.581 35.0933 464.544 33.216C466.507 31.3387 468.939 30.4 471.84 30.4C474.741 30.4 477.173 31.3387 479.136 33.216C481.099 35.0933 482.08 37.3547 482.08 40V75.84C482.08 78.4853 481.099 80.7467 479.136 82.624C477.173 84.5013 474.741 85.44 471.84 85.44C468.939 85.44 466.507 84.5013 464.544 82.624C462.581 80.7467 461.6 78.4853 461.6 75.84ZM472.352 120.768C468.512 120.768 465.355 119.531 462.88 117.056C460.491 114.496 459.296 111.381 459.296 107.712C459.296 104.555 460.533 101.781 463.008 99.392C465.483 96.9173 468.597 95.68 472.352 95.68C475.68 95.68 478.496 96.9173 480.8 99.392C483.189 101.781 484.384 104.555 484.384 107.712C484.384 111.296 483.232 114.368 480.928 116.928C478.709 119.488 475.851 120.768 472.352 120.768Z" fill="#1E813A"/>
</g>
<g filter="url(#filter2_f_1_6781)">
<path d="M40.12 30.4H93.24C95.8853 30.4 98.1467 31.3387 100.024 33.216C101.901 35.0933 102.84 37.3547 102.84 40V111.68C102.84 114.325 101.859 116.587 99.896 118.464C97.9333 120.341 95.5013 121.28 92.6 121.28C89.6987 121.28 87.2667 120.341 85.304 118.464C83.3413 116.587 82.36 114.325 82.36 111.68V49.6H51V111.68C51 114.325 50.0187 116.587 48.056 118.464C46.0933 120.341 43.6613 121.28 40.76 121.28C37.8587 121.28 35.4267 120.341 33.464 118.464C31.5013 116.587 30.52 114.325 30.52 111.68V40C30.52 37.3547 31.4587 35.0933 33.336 33.216C35.2133 31.3387 37.4747 30.4 40.12 30.4ZM173.511 112.96C167.708 118.677 159.943 121.536 150.215 121.536C140.487 121.536 132.764 118.677 127.047 112.96C121.159 107.157 118.215 99.904 118.215 91.2C118.215 82.4107 121.159 75.1573 127.047 69.44C132.764 63.7227 140.487 60.864 150.215 60.864C159.943 60.864 167.708 63.7227 173.511 69.44C179.314 75.2427 182.215 82.496 182.215 91.2C182.215 99.904 179.314 107.157 173.511 112.96ZM158.407 82.24C156.786 80.448 154.78 79.3813 152.391 79.04C150.087 78.6133 147.868 78.8267 145.735 79.68C143.687 80.5333 141.938 81.984 140.487 84.032C139.122 86.08 138.524 88.4693 138.695 91.2C138.695 94.784 139.762 97.7707 141.895 100.16C144.114 102.464 146.887 103.616 150.215 103.616C153.628 103.616 156.402 102.507 158.535 100.288C160.668 97.984 161.735 94.9547 161.735 91.2C161.735 87.616 160.626 84.6293 158.407 82.24ZM226.32 63.68C233.829 63.68 239.973 66.1973 244.752 71.232C249.445 76.2667 251.792 83.0933 251.792 91.712C251.792 99.9893 248.976 107.029 243.344 112.832C237.712 118.635 230.288 121.536 221.072 121.536C211.173 121.536 203.365 118.208 197.648 111.552C192.016 104.896 189.2 95.8933 189.2 84.544C189.2 58.688 196.624 43.3707 211.472 38.592C214.032 37.7387 217.061 36.9707 220.56 36.288C224.315 35.52 226.875 34.752 228.24 33.984C231.397 32.3627 234.171 31.552 236.56 31.552C239.888 31.552 242.235 33.088 243.6 36.16C244.368 37.7813 244.752 39.3173 244.752 40.768C244.752 44.2667 242.96 47.0827 239.376 49.216C237.072 50.5813 233.36 51.8187 228.24 52.928C222.949 54.1227 219.237 55.1467 217.104 56C212.24 57.9627 209.381 63.2107 208.528 71.744C210.32 69.44 212.837 67.52 216.08 65.984C219.408 64.448 222.821 63.68 226.32 63.68ZM221.328 81.6C215.696 81.6 211.813 83.9467 209.68 88.64C209.765 92.9067 210.789 96.4907 212.752 99.392C214.715 102.208 217.317 103.616 220.56 103.616C224.997 103.957 228.155 102.208 230.032 98.368C231.909 94.528 231.952 90.688 230.16 86.848C228.453 83.008 225.509 81.2587 221.328 81.6ZM278.04 84.8H298.776C298.776 82.5813 297.923 80.704 296.216 79.168C294.509 77.632 292.248 76.864 289.432 76.864C283.8 76.864 280.003 79.5093 278.04 84.8ZM290.072 60.864C297.667 60.864 304.237 63.3813 309.784 68.416C315.245 73.536 317.976 80.064 317.976 88V90.56C317.976 92.7787 317.208 94.528 315.672 95.808C314.221 97.0027 312.515 97.6 310.552 97.6H278.68C280.387 102.891 284.867 105.536 292.12 105.536C294.68 105.536 297.368 105.109 300.184 104.256C301.123 104 301.976 103.872 302.744 103.872C306.072 103.872 308.291 105.408 309.4 108.48C309.741 109.163 309.912 110.059 309.912 111.168C309.912 114.581 308.163 117.141 304.664 118.848C301.251 120.64 296.387 121.536 290.072 121.536C280.685 121.536 273.133 118.763 267.416 113.216C261.699 107.755 258.84 100.416 258.84 91.2C258.84 82.5813 261.741 75.3707 267.544 69.568C273.347 63.7653 280.856 60.864 290.072 60.864ZM373.272 123.84V120H338.2V123.84C338.2 126.229 337.304 128.32 335.512 130.112C333.72 131.904 331.629 132.8 329.24 132.8C326.851 132.8 324.76 131.904 322.968 130.112C321.176 128.32 320.28 126.229 320.28 123.84V109.376C320.28 107.413 321.005 105.707 322.456 104.256C323.907 102.805 325.656 102.08 327.704 102.08C331.885 96.6187 334.36 87.5307 335.128 74.816L335.384 71.36C335.469 68.8853 336.451 66.7947 338.328 65.088C340.205 63.296 342.381 62.4 344.856 62.4H372.632C375.107 62.4 377.197 63.296 378.904 65.088C380.696 66.88 381.592 68.9707 381.592 71.36V102.08C384.237 102.08 386.499 102.976 388.376 104.768C390.253 106.475 391.192 108.565 391.192 111.04V123.84C391.192 126.229 390.296 128.32 388.504 130.112C386.712 131.904 384.621 132.8 382.232 132.8C379.843 132.8 377.752 131.904 375.96 130.112C374.168 128.32 373.272 126.229 373.272 123.84ZM347.8 102.08H362.392V80.32H353.816L353.56 82.624C352.536 91.2427 350.616 97.728 347.8 102.08ZM414.516 121.28C409.14 121.28 404.745 119.573 401.332 116.16C398.004 112.747 396.34 108.224 396.34 102.592C396.34 96.5333 398.217 91.84 401.972 88.512C405.812 85.184 410.847 83.52 417.076 83.52C421.94 83.52 425.695 84.5867 428.34 86.72V85.568C428.34 79.7653 425.695 76.864 420.404 76.864C417.673 76.864 414.985 77.248 412.34 78.016C411.657 78.1867 410.932 78.272 410.164 78.272C406.58 78.272 404.233 76.48 403.124 72.896C402.868 72.2133 402.74 71.5307 402.74 70.848C402.74 69.2267 403.295 67.6907 404.404 66.24C405.599 64.7893 407.092 63.7227 408.884 63.04C412.809 61.5893 417.289 60.864 422.324 60.864C430.687 60.864 436.745 62.8693 440.5 66.88C444.34 70.8907 446.26 77.0347 446.26 85.312V111.808C446.26 114.624 445.449 116.928 443.828 118.72C442.292 120.427 440.372 121.28 438.068 121.28C433.716 121.28 430.9 119.104 429.62 114.752C426.889 119.104 421.855 121.28 414.516 121.28ZM428.34 101.824V98.24C426.548 96.96 424.116 96.32 421.044 96.32C419.423 96.32 418.1 96.704 417.076 97.472C416.052 98.24 415.54 99.3067 415.54 100.672C415.54 101.952 416.052 103.019 417.076 103.872C418.1 104.725 419.423 105.152 421.044 105.152C424.201 105.152 426.633 104.043 428.34 101.824ZM461.6 75.84V40C461.6 37.3547 462.581 35.0933 464.544 33.216C466.507 31.3387 468.939 30.4 471.84 30.4C474.741 30.4 477.173 31.3387 479.136 33.216C481.099 35.0933 482.08 37.3547 482.08 40V75.84C482.08 78.4853 481.099 80.7467 479.136 82.624C477.173 84.5013 474.741 85.44 471.84 85.44C468.939 85.44 466.507 84.5013 464.544 82.624C462.581 80.7467 461.6 78.4853 461.6 75.84ZM472.352 120.768C468.512 120.768 465.355 119.531 462.88 117.056C460.491 114.496 459.296 111.381 459.296 107.712C459.296 104.555 460.533 101.781 463.008 99.392C465.483 96.9173 468.597 95.68 472.352 95.68C475.68 95.68 478.496 96.9173 480.8 99.392C483.189 101.781 484.384 104.555 484.384 107.712C484.384 111.296 483.232 114.368 480.928 116.928C478.709 119.488 475.851 120.768 472.352 120.768Z" fill="#1E813A"/>
</g>
<path d="M40.12 30.4H93.24C95.8853 30.4 98.1467 31.3387 100.024 33.216C101.901 35.0933 102.84 37.3547 102.84 40V111.68C102.84 114.325 101.859 116.587 99.896 118.464C97.9333 120.341 95.5013 121.28 92.6 121.28C89.6987 121.28 87.2667 120.341 85.304 118.464C83.3413 116.587 82.36 114.325 82.36 111.68V49.6H51V111.68C51 114.325 50.0187 116.587 48.056 118.464C46.0933 120.341 43.6613 121.28 40.76 121.28C37.8587 121.28 35.4267 120.341 33.464 118.464C31.5013 116.587 30.52 114.325 30.52 111.68V40C30.52 37.3547 31.4587 35.0933 33.336 33.216C35.2133 31.3387 37.4747 30.4 40.12 30.4ZM173.511 112.96C167.708 118.677 159.943 121.536 150.215 121.536C140.487 121.536 132.764 118.677 127.047 112.96C121.159 107.157 118.215 99.904 118.215 91.2C118.215 82.4107 121.159 75.1573 127.047 69.44C132.764 63.7227 140.487 60.864 150.215 60.864C159.943 60.864 167.708 63.7227 173.511 69.44C179.314 75.2427 182.215 82.496 182.215 91.2C182.215 99.904 179.314 107.157 173.511 112.96ZM158.407 82.24C156.786 80.448 154.78 79.3813 152.391 79.04C150.087 78.6133 147.868 78.8267 145.735 79.68C143.687 80.5333 141.938 81.984 140.487 84.032C139.122 86.08 138.524 88.4693 138.695 91.2C138.695 94.784 139.762 97.7707 141.895 100.16C144.114 102.464 146.887 103.616 150.215 103.616C153.628 103.616 156.402 102.507 158.535 100.288C160.668 97.984 161.735 94.9547 161.735 91.2C161.735 87.616 160.626 84.6293 158.407 82.24ZM226.32 63.68C233.829 63.68 239.973 66.1973 244.752 71.232C249.445 76.2667 251.792 83.0933 251.792 91.712C251.792 99.9893 248.976 107.029 243.344 112.832C237.712 118.635 230.288 121.536 221.072 121.536C211.173 121.536 203.365 118.208 197.648 111.552C192.016 104.896 189.2 95.8933 189.2 84.544C189.2 58.688 196.624 43.3707 211.472 38.592C214.032 37.7387 217.061 36.9707 220.56 36.288C224.315 35.52 226.875 34.752 228.24 33.984C231.397 32.3627 234.171 31.552 236.56 31.552C239.888 31.552 242.235 33.088 243.6 36.16C244.368 37.7813 244.752 39.3173 244.752 40.768C244.752 44.2667 242.96 47.0827 239.376 49.216C237.072 50.5813 233.36 51.8187 228.24 52.928C222.949 54.1227 219.237 55.1467 217.104 56C212.24 57.9627 209.381 63.2107 208.528 71.744C210.32 69.44 212.837 67.52 216.08 65.984C219.408 64.448 222.821 63.68 226.32 63.68ZM221.328 81.6C215.696 81.6 211.813 83.9467 209.68 88.64C209.765 92.9067 210.789 96.4907 212.752 99.392C214.715 102.208 217.317 103.616 220.56 103.616C224.997 103.957 228.155 102.208 230.032 98.368C231.909 94.528 231.952 90.688 230.16 86.848C228.453 83.008 225.509 81.2587 221.328 81.6ZM278.04 84.8H298.776C298.776 82.5813 297.923 80.704 296.216 79.168C294.509 77.632 292.248 76.864 289.432 76.864C283.8 76.864 280.003 79.5093 278.04 84.8ZM290.072 60.864C297.667 60.864 304.237 63.3813 309.784 68.416C315.245 73.536 317.976 80.064 317.976 88V90.56C317.976 92.7787 317.208 94.528 315.672 95.808C314.221 97.0027 312.515 97.6 310.552 97.6H278.68C280.387 102.891 284.867 105.536 292.12 105.536C294.68 105.536 297.368 105.109 300.184 104.256C301.123 104 301.976 103.872 302.744 103.872C306.072 103.872 308.291 105.408 309.4 108.48C309.741 109.163 309.912 110.059 309.912 111.168C309.912 114.581 308.163 117.141 304.664 118.848C301.251 120.64 296.387 121.536 290.072 121.536C280.685 121.536 273.133 118.763 267.416 113.216C261.699 107.755 258.84 100.416 258.84 91.2C258.84 82.5813 261.741 75.3707 267.544 69.568C273.347 63.7653 280.856 60.864 290.072 60.864ZM373.272 123.84V120H338.2V123.84C338.2 126.229 337.304 128.32 335.512 130.112C333.72 131.904 331.629 132.8 329.24 132.8C326.851 132.8 324.76 131.904 322.968 130.112C321.176 128.32 320.28 126.229 320.28 123.84V109.376C320.28 107.413 321.005 105.707 322.456 104.256C323.907 102.805 325.656 102.08 327.704 102.08C331.885 96.6187 334.36 87.5307 335.128 74.816L335.384 71.36C335.469 68.8853 336.451 66.7947 338.328 65.088C340.205 63.296 342.381 62.4 344.856 62.4H372.632C375.107 62.4 377.197 63.296 378.904 65.088C380.696 66.88 381.592 68.9707 381.592 71.36V102.08C384.237 102.08 386.499 102.976 388.376 104.768C390.253 106.475 391.192 108.565 391.192 111.04V123.84C391.192 126.229 390.296 128.32 388.504 130.112C386.712 131.904 384.621 132.8 382.232 132.8C379.843 132.8 377.752 131.904 375.96 130.112C374.168 128.32 373.272 126.229 373.272 123.84ZM347.8 102.08H362.392V80.32H353.816L353.56 82.624C352.536 91.2427 350.616 97.728 347.8 102.08ZM414.516 121.28C409.14 121.28 404.745 119.573 401.332 116.16C398.004 112.747 396.34 108.224 396.34 102.592C396.34 96.5333 398.217 91.84 401.972 88.512C405.812 85.184 410.847 83.52 417.076 83.52C421.94 83.52 425.695 84.5867 428.34 86.72V85.568C428.34 79.7653 425.695 76.864 420.404 76.864C417.673 76.864 414.985 77.248 412.34 78.016C411.657 78.1867 410.932 78.272 410.164 78.272C406.58 78.272 404.233 76.48 403.124 72.896C402.868 72.2133 402.74 71.5307 402.74 70.848C402.74 69.2267 403.295 67.6907 404.404 66.24C405.599 64.7893 407.092 63.7227 408.884 63.04C412.809 61.5893 417.289 60.864 422.324 60.864C430.687 60.864 436.745 62.8693 440.5 66.88C444.34 70.8907 446.26 77.0347 446.26 85.312V111.808C446.26 114.624 445.449 116.928 443.828 118.72C442.292 120.427 440.372 121.28 438.068 121.28C433.716 121.28 430.9 119.104 429.62 114.752C426.889 119.104 421.855 121.28 414.516 121.28ZM428.34 101.824V98.24C426.548 96.96 424.116 96.32 421.044 96.32C419.423 96.32 418.1 96.704 417.076 97.472C416.052 98.24 415.54 99.3067 415.54 100.672C415.54 101.952 416.052 103.019 417.076 103.872C418.1 104.725 419.423 105.152 421.044 105.152C424.201 105.152 426.633 104.043 428.34 101.824ZM461.6 75.84V40C461.6 37.3547 462.581 35.0933 464.544 33.216C466.507 31.3387 468.939 30.4 471.84 30.4C474.741 30.4 477.173 31.3387 479.136 33.216C481.099 35.0933 482.08 37.3547 482.08 40V75.84C482.08 78.4853 481.099 80.7467 479.136 82.624C477.173 84.5013 474.741 85.44 471.84 85.44C468.939 85.44 466.507 84.5013 464.544 82.624C462.581 80.7467 461.6 78.4853 461.6 75.84ZM472.352 120.768C468.512 120.768 465.355 119.531 462.88 117.056C460.491 114.496 459.296 111.381 459.296 107.712C459.296 104.555 460.533 101.781 463.008 99.392C465.483 96.9173 468.597 95.68 472.352 95.68C475.68 95.68 478.496 96.9173 480.8 99.392C483.189 101.781 484.384 104.555 484.384 107.712C484.384 111.296 483.232 114.368 480.928 116.928C478.709 119.488 475.851 120.768 472.352 120.768Z" fill="url(#paint0_linear_1_6781)"/>
<defs>
<filter id="filter0_f_1_6781" x="0.520004" y="0.399902" width="513.864" height="162.4" filterUnits="userSpaceOnUse" color-interpolation-filters="sRGB">
<feFlood flood-opacity="0" result="BackgroundImageFix"/>
<feBlend mode="normal" in="SourceGraphic" in2="BackgroundImageFix" result="shape"/>
<feGaussianBlur stdDeviation="15" result="effect1_foregroundBlur_1_6781"/>
</filter>
<filter id="filter1_f_1_6781" x="10.52" y="10.3999" width="493.864" height="142.4" filterUnits="userSpaceOnUse" color-interpolation-filters="sRGB">
<feFlood flood-opacity="0" result="BackgroundImageFix"/>
<feBlend mode="normal" in="SourceGraphic" in2="BackgroundImageFix" result="shape"/>
<feGaussianBlur stdDeviation="10" result="effect1_foregroundBlur_1_6781"/>
</filter>
<filter id="filter2_f_1_6781" x="20.52" y="20.3999" width="473.864" height="122.4" filterUnits="userSpaceOnUse" color-interpolation-filters="sRGB">
<feFlood flood-opacity="0" result="BackgroundImageFix"/>
<feBlend mode="normal" in="SourceGraphic" in2="BackgroundImageFix" result="shape"/>
<feGaussianBlur stdDeviation="5" result="effect1_foregroundBlur_1_6781"/>
</filter>
<linearGradient id="paint0_linear_1_6781" x1="255.5" y1="3" x2="255.5" y2="166" gradientUnits="userSpaceOnUse">
<stop offset="0.0864582" stop-color="#FFF9D8"/>
<stop offset="0.695833" stop-color="#FFE44F"/>
</linearGradient>
</defs>
</svg>
